<?xml version="1.0" encoding="utf-8"?>
<!-- Generator: Adobe Illustrator 16.0.0, SVG Export Plug-In . SVG Version: 6.00 Build 0)  -->
<!DOCTYPE svg PUBLIC "-//W3C//DTD SVG 1.1//EN" "http://www.w3.org/Graphics/SVG/1.1/DTD/svg11.dtd">
<svg version="1.1" id="Layer_1" xmlns="http://www.w3.org/2000/svg" xmlns:xlink="http://www.w3.org/1999/xlink" x="0px" y="0px"
	 width="1000px" height="1000px" viewBox="0 0 1000 1000" enable-background="new 0 0 1000 1000" xml:space="preserve">
<rect fill="#262626" width="1000" height="1000"/>
<g>
	<path fill="#B99AB0" d="M529.799,851.717c0,17.109-5.588,31.082-16.76,41.902c-11.18,10.828-25.32,16.234-42.426,16.234H259.531
		c-17.113,0-31.086-5.406-41.902-16.234c-10.83-10.82-16.238-24.793-16.238-41.902V148.283c0-17.107,5.408-31.072,16.238-41.9
		c10.816-10.816,24.789-16.236,41.902-16.236h211.082c17.105,0,31.246,5.42,42.426,16.236c11.172,10.828,16.76,24.793,16.76,41.9
		v190.652h-73.33V154.568H274.195v690.859h182.273V628.836h73.33V851.717z"/>
</g>
<g>
	<path fill="#B99AB0" d="M201.391,458.424h209.641v57.525H201.391"/>
</g>
<g>
	<path fill="#B99AB0" d="M529.799,458.424l171.535-367.65h78.967v4.707L595.172,485.096l203.438,424.125h-80.02L529.799,515.949"/>
</g>
</svg>
